<svg width="1180" height="193" viewBox="0 0 1180 193" fill="none" xmlns="http://www.w3.org/2000/svg">
<path d="M168.642 80V1.59999H240.098V80H222.066V12.24L226.21 16.384H182.53L186.674 12.24V80H168.642ZM259.533 80V1.59999H293.469C300.488 1.59999 306.536 2.75733 311.613 5.072C316.69 7.31199 320.61 10.56 323.373 14.816C326.136 19.072 327.517 24.1493 327.517 30.048C327.517 35.872 326.136 40.912 323.373 45.168C320.61 49.424 316.69 52.7093 311.613 55.024C306.536 57.264 300.488 58.384 293.469 58.384H269.613L277.677 50.208V80H259.533ZM277.677 52.224L269.613 43.6H292.461C298.061 43.6 302.242 42.4053 305.005 40.016C307.768 37.6267 309.149 34.304 309.149 30.048C309.149 25.7173 307.768 22.3573 305.005 19.968C302.242 17.5787 298.061 16.384 292.461 16.384H269.613L277.677 7.76V52.224ZM339.486 80V1.59999H357.518V52.672L394.926 1.59999H411.95V80H394.03V29.04L356.622 80H339.486ZM468.991 81.344C462.793 81.344 457.044 80.336 451.743 78.32C446.516 76.304 441.961 73.4667 438.079 69.808C434.271 66.1493 431.284 61.856 429.119 56.928C427.028 52 425.983 46.624 425.983 40.8C425.983 34.976 427.028 29.6 429.119 24.672C431.284 19.744 434.308 15.4507 438.191 11.792C442.073 8.13333 446.628 5.29599 451.855 3.27999C457.081 1.264 462.756 0.255999 468.879 0.255999C475.076 0.255999 480.751 1.264 485.903 3.27999C491.129 5.29599 495.647 8.13333 499.455 11.792C503.337 15.4507 506.361 19.744 508.527 24.672C510.692 29.5253 511.775 34.9013 511.775 40.8C511.775 46.624 510.692 52.0373 508.527 57.04C506.361 61.968 503.337 66.2613 499.455 69.92C495.647 73.504 491.129 76.304 485.903 78.32C480.751 80.336 475.113 81.344 468.991 81.344ZM468.879 65.888C472.388 65.888 475.599 65.2907 478.511 64.096C481.497 62.9013 484.111 61.184 486.351 58.944C488.591 56.704 490.308 54.0533 491.503 50.992C492.772 47.9307 493.407 44.5333 493.407 40.8C493.407 37.0667 492.772 33.6693 491.503 30.608C490.308 27.5467 488.591 24.896 486.351 22.656C484.185 20.416 481.609 18.6987 478.623 17.504C475.636 16.3093 472.388 15.712 468.879 15.712C465.369 15.712 462.121 16.3093 459.135 17.504C456.223 18.6987 453.647 20.416 451.407 22.656C449.167 24.896 447.412 27.5467 446.143 30.608C444.948 33.6693 444.351 37.0667 444.351 40.8C444.351 44.4587 444.948 47.856 446.143 50.992C447.412 54.0533 449.129 56.704 451.295 58.944C453.535 61.184 456.148 62.9013 459.135 64.096C462.121 65.2907 465.369 65.888 468.879 65.888ZM525.752 80V1.59999H559.688C566.706 1.59999 572.754 2.75733 577.832 5.072C582.909 7.31199 586.829 10.56 589.592 14.816C592.354 19.072 593.736 24.1493 593.736 30.048C593.736 35.872 592.354 40.912 589.592 45.168C586.829 49.424 582.909 52.7093 577.832 55.024C572.754 57.264 566.706 58.384 559.688 58.384H535.832L543.896 50.208V80H525.752ZM543.896 52.224L535.832 43.6H558.68C564.28 43.6 568.461 42.4053 571.224 40.016C573.986 37.6267 575.368 34.304 575.368 30.048C575.368 25.7173 573.986 22.3573 571.224 19.968C568.461 17.5787 564.28 16.384 558.68 16.384H535.832L543.896 7.76V52.224ZM605.705 80V1.59999H623.737V52.672L661.145 1.59999H678.169V80H660.249V29.04L622.841 80H605.705ZM714.601 80V12.24L718.745 16.384H689.625V1.59999H757.609V16.384H728.489L732.521 12.24V80H714.601ZM769.002 80V1.59999H828.25V16.16H787.034V65.44H829.706V80H769.002ZM785.69 47.296V33.184H823.434V47.296H785.69ZM861.273 80V12.24L865.417 16.384H836.297V1.59999H904.281V16.384H875.161L879.193 12.24V80H861.273ZM915.674 80V1.59999H933.706V27.36H953.642C963.124 27.36 970.442 29.488 975.594 33.744C980.746 37.9253 983.322 44.2347 983.322 52.672C983.322 61.632 980.447 68.4267 974.698 73.056C969.023 77.6853 961.146 80 951.066 80H915.674ZM933.706 66.56H950.058C954.687 66.56 958.346 65.4027 961.034 63.088C963.722 60.7733 965.066 57.4133 965.066 53.008C965.066 48.6773 963.722 45.5787 961.034 43.712C958.42 41.7707 954.762 40.8 950.058 40.8H933.706V66.56ZM993.29 80V1.59999H1011.32V80H993.29ZM2.02713 183.712L-13.7649 161.872L2.02713 139.92H17.7071L2.36313 161.872L17.7071 183.712H2.02713ZM27.3391 183.712L11.5471 161.872L27.3391 139.92H43.0191L27.6751 161.872L43.0191 183.712H27.3391ZM55.6034 192V113.6H114.851V128.16H73.6354V177.44H116.307V192H55.6034ZM72.2914 159.296V145.184H110.035V159.296H72.2914ZM144.851 179.68L125.475 177.216C128.163 177.291 130.365 176.357 132.083 174.416C133.875 172.475 135.293 169.749 136.339 166.24C137.384 162.656 138.131 158.475 138.579 153.696C139.101 148.917 139.475 143.728 139.699 138.128L140.595 113.6H200.851V183.936H182.931V128.384H156.051L155.715 139.808C155.491 144.661 155.155 149.253 154.707 153.584C154.333 157.915 153.736 161.872 152.915 165.456C152.093 168.965 151.011 171.952 149.667 174.416C148.397 176.88 146.792 178.635 144.851 179.68ZM122.899 208.24L123.011 177.216H211.827V208.24H195.027V192H139.699V208.24H122.899ZM224.041 192V113.6H242.073V164.672L279.481 113.6H296.505V192H278.585V141.04L241.177 192H224.041ZM369.785 192V113.6H387.929V192H369.785ZM316.025 192V113.6H334.169V192H316.025ZM332.825 159.856V144.512H371.129V159.856H332.825ZM445.092 193.344C438.895 193.344 433.145 192.336 427.844 190.32C422.617 188.304 418.063 185.467 414.18 181.808C410.372 178.149 407.385 173.856 405.22 168.928C403.129 164 402.084 158.624 402.084 152.8C402.084 146.976 403.129 141.6 405.22 136.672C407.385 131.744 410.409 127.451 414.292 123.792C418.175 120.133 422.729 117.296 427.956 115.28C433.183 113.264 438.857 112.256 444.98 112.256C451.177 112.256 456.852 113.264 462.004 115.28C467.231 117.296 471.748 120.133 475.556 123.792C479.439 127.451 482.463 131.744 484.628 136.672C486.793 141.525 487.876 146.901 487.876 152.8C487.876 158.624 486.793 164.037 484.628 169.04C482.463 173.968 479.439 178.261 475.556 181.92C471.748 185.504 467.231 188.304 462.004 190.32C456.852 192.336 451.215 193.344 445.092 193.344ZM444.98 177.888C448.489 177.888 451.7 177.291 454.612 176.096C457.599 174.901 460.212 173.184 462.452 170.944C464.692 168.704 466.409 166.053 467.604 162.992C468.873 159.931 469.508 156.533 469.508 152.8C469.508 149.067 468.873 145.669 467.604 142.608C466.409 139.547 464.692 136.896 462.452 134.656C460.287 132.416 457.711 130.699 454.724 129.504C451.737 128.309 448.489 127.712 444.98 127.712C441.471 127.712 438.223 128.309 435.236 129.504C432.324 130.699 429.748 132.416 427.508 134.656C425.268 136.896 423.513 139.547 422.244 142.608C421.049 145.669 420.452 149.067 420.452 152.8C420.452 156.459 421.049 159.856 422.244 162.992C423.513 166.053 425.231 168.704 427.396 170.944C429.636 173.184 432.249 174.901 435.236 176.096C438.223 177.291 441.471 177.888 444.98 177.888ZM501.853 192V113.6H519.885V164.672L557.293 113.6H574.317V192H556.397V141.04L518.989 192H501.853ZM538.029 108.56C530.563 108.56 525.075 107.067 521.565 104.08C518.131 101.093 516.376 96.8747 516.301 91.424H528.733C528.808 94.112 529.592 96.1653 531.085 97.584C532.653 98.928 534.968 99.6 538.029 99.6C541.016 99.6 543.293 98.928 544.861 97.584C546.429 96.1653 547.251 94.112 547.325 91.424H559.757C559.683 96.8747 557.891 101.093 554.381 104.08C550.872 107.067 545.421 108.56 538.029 108.56ZM625.557 192V113.6H659.493C666.511 113.6 672.559 114.757 677.637 117.072C682.714 119.312 686.634 122.56 689.397 126.816C692.159 131.072 693.541 136.149 693.541 142.048C693.541 147.872 692.159 152.912 689.397 157.168C686.634 161.424 682.714 164.709 677.637 167.024C672.559 169.264 666.511 170.384 659.493 170.384H635.637L643.701 162.208V192H625.557ZM643.701 164.224L635.637 155.6H658.485C664.085 155.6 668.266 154.405 671.029 152.016C673.791 149.627 675.173 146.304 675.173 142.048C675.173 137.717 673.791 134.357 671.029 131.968C668.266 129.579 664.085 128.384 658.485 128.384H635.637L643.701 119.76V164.224ZM744.123 193.344C737.926 193.344 732.177 192.336 726.875 190.32C721.649 188.304 717.094 185.467 713.211 181.808C709.403 178.149 706.417 173.856 704.251 168.928C702.161 164 701.115 158.624 701.115 152.8C701.115 146.976 702.161 141.6 704.251 136.672C706.417 131.744 709.441 127.451 713.323 123.792C717.206 120.133 721.761 117.296 726.987 115.28C732.214 113.264 737.889 112.256 744.011 112.256C750.209 112.256 755.883 113.264 761.035 115.28C766.262 117.296 770.779 120.133 774.587 123.792C778.47 127.451 781.494 131.744 783.659 136.672C785.825 141.525 786.907 146.901 786.907 152.8C786.907 158.624 785.825 164.037 783.659 169.04C781.494 173.968 778.47 178.261 774.587 181.92C770.779 185.504 766.262 188.304 761.035 190.32C755.883 192.336 750.246 193.344 744.123 193.344ZM744.011 177.888C747.521 177.888 750.731 177.291 753.643 176.096C756.63 174.901 759.243 173.184 761.483 170.944C763.723 168.704 765.441 166.053 766.635 162.992C767.905 159.931 768.539 156.533 768.539 152.8C768.539 149.067 767.905 145.669 766.635 142.608C765.441 139.547 763.723 136.896 761.483 134.656C759.318 132.416 756.742 130.699 753.755 129.504C750.769 128.309 747.521 127.712 744.011 127.712C740.502 127.712 737.254 128.309 734.267 129.504C731.355 130.699 728.779 132.416 726.539 134.656C724.299 136.896 722.545 139.547 721.275 142.608C720.081 145.669 719.483 149.067 719.483 152.8C719.483 156.459 720.081 159.856 721.275 162.992C722.545 166.053 724.262 168.704 726.427 170.944C728.667 173.184 731.281 174.901 734.267 176.096C737.254 177.291 740.502 177.888 744.011 177.888ZM837.957 193.344C831.909 193.344 826.271 192.373 821.045 190.432C815.893 188.416 811.413 185.579 807.605 181.92C803.797 178.261 800.81 173.968 798.645 169.04C796.554 164.112 795.509 158.699 795.509 152.8C795.509 146.901 796.554 141.488 798.645 136.56C800.81 131.632 803.797 127.339 807.605 123.68C811.487 120.021 816.005 117.221 821.157 115.28C826.309 113.264 831.946 112.256 838.069 112.256C844.863 112.256 850.986 113.451 856.437 115.84C861.962 118.155 866.591 121.589 870.325 126.144L858.677 136.896C855.989 133.835 853.002 131.557 849.717 130.064C846.431 128.496 842.847 127.712 838.965 127.712C835.306 127.712 831.946 128.309 828.885 129.504C825.823 130.699 823.173 132.416 820.933 134.656C818.693 136.896 816.938 139.547 815.669 142.608C814.474 145.669 813.877 149.067 813.877 152.8C813.877 156.533 814.474 159.931 815.669 162.992C816.938 166.053 818.693 168.704 820.933 170.944C823.173 173.184 825.823 174.901 828.885 176.096C831.946 177.291 835.306 177.888 838.965 177.888C842.847 177.888 846.431 177.141 849.717 175.648C853.002 174.08 855.989 171.728 858.677 168.592L870.325 179.344C866.591 183.899 861.962 187.371 856.437 189.76C850.986 192.149 844.826 193.344 837.957 193.344ZM915.722 193.344C909.674 193.344 904.037 192.373 898.81 190.432C893.658 188.416 889.178 185.579 885.37 181.92C881.562 178.261 878.576 173.968 876.41 169.04C874.32 164.112 873.274 158.699 873.274 152.8C873.274 146.901 874.32 141.488 876.41 136.56C878.576 131.632 881.562 127.339 885.37 123.68C889.253 120.021 893.77 117.221 898.922 115.28C904.074 113.264 909.712 112.256 915.834 112.256C922.629 112.256 928.752 113.451 934.202 115.84C939.728 118.155 944.357 121.589 948.09 126.144L936.442 136.896C933.754 133.835 930.768 131.557 927.482 130.064C924.197 128.496 920.613 127.712 916.73 127.712C913.072 127.712 909.712 128.309 906.65 129.504C903.589 130.699 900.938 132.416 898.698 134.656C896.458 136.896 894.704 139.547 893.434 142.608C892.24 145.669 891.642 149.067 891.642 152.8C891.642 156.533 892.24 159.931 893.434 162.992C894.704 166.053 896.458 168.704 898.698 170.944C900.938 173.184 903.589 174.901 906.65 176.096C909.712 177.291 913.072 177.888 916.73 177.888C920.613 177.888 924.197 177.141 927.482 175.648C930.768 174.08 933.754 171.728 936.442 168.592L948.09 179.344C944.357 183.899 939.728 187.371 934.202 189.76C928.752 192.149 922.592 193.344 915.722 193.344ZM959.916 192V113.6H977.948V164.672L1015.36 113.6H1032.38V192H1014.46V141.04L977.052 192H959.916ZM1051.9 192V113.6H1069.93V164.672L1107.34 113.6H1124.36V192H1106.44V141.04L1069.04 192H1051.9ZM1136.94 183.712L1152.28 161.872L1136.94 139.92H1152.62L1168.41 161.872L1152.62 183.712H1136.94ZM1162.25 183.712L1177.6 161.872L1162.25 139.92H1177.93L1193.72 161.872L1177.93 183.712H1162.25Z" fill="white" fill-opacity="0.03"/>
</svg>
